<svg width="13" height="12" viewBox="0 0 13 12" fill="none" xmlns="http://www.w3.org/2000/svg">
<path d="M4.3151 0.5H2.57143C1.70355 0.5 1 1.20355 1 2.07143V3.64286C1 7.98224 4.51776 11.5 8.85714 11.5H10.4286C11.2964 11.5 12 10.7964 12 9.92857V8.84274C12 8.54513 11.8319 8.27307 11.5657 8.13998L9.66744 7.19086C9.23977 6.97703 8.72186 7.19155 8.57066 7.64516L8.3367 8.34704C8.18515 8.80168 7.71878 9.07233 7.24885 8.97834C5.36801 8.60217 3.89783 7.13199 3.52166 5.25115C3.42767 4.78122 3.69832 4.31485 4.15296 4.1633L5.02403 3.87294C5.41352 3.74311 5.63739 3.33529 5.53782 2.93699L5.07736 1.09515C4.98992 0.745376 4.67564 0.5 4.3151 0.5Z" stroke="#0043A4"/>
</svg>
